<svg xmlns="http://www.w3.org/2000/svg" viewBox="0 0 1600 900" role="img" aria-label="Illustration - Accueil">
  <defs>
    <linearGradient id="g" x1="0" y1="0" x2="0" y2="1">
      <stop offset="0" stop-color="#0f172a" stop-opacity="0.85"/>
      <stop offset="1" stop-color="#111827" stop-opacity="0.85"/>
    </linearGradient>
  </defs>
  <rect width="1600" height="900" fill="#0b0f14"/>
  <g opacity="0.35">
    <circle cx="200" cy="150" r="120" fill="#1f2937"/>
    <circle cx="600" cy="300" r="160" fill="#1f2937"/>
    <circle cx="1200" cy="200" r="140" fill="#1f2937"/>
    <circle cx="950" cy="600" r="180" fill="#1f2937"/>
  </g>
  <rect width="1600" height="900" fill="url(#g)"/>
  <g fill="#93c5fd" opacity="0.9" transform="translate(0,50)">
    <!-- Skyline stylisée -->
    <rect x="180" y="520" width="90" height="200" rx="6"/>
    <rect x="300" y="470" width="110" height="250" rx="6"/>
    <rect x="450" y="430" width="130" height="290" rx="6"/>
    <rect x="620" y="500" width="90" height="220" rx="6"/>
    <rect x="740" y="450" width="120" height="270" rx="6"/>
    <rect x="890" y="520" width="100" height="200" rx="6"/>
    <rect x="1020" y="480" width="120" height="240" rx="6"/>
    <rect x="1180" y="520" width="80" height="200" rx="6"/>
  </g>
</svg>
