<svg xmlns="http://www.w3.org/2000/svg" viewBox="0 0 1600 900" role="img" aria-label="Illustration - Facility">
  <defs>
    <linearGradient id="g" x1="0" y1="0" x2="0" y2="1">
      <stop offset="0" stop-color="#0f172a" stop-opacity="0.88"/>
      <stop offset="1" stop-color="#111827" stop-opacity="0.88"/>
    </linearGradient>
  </defs>
  <rect width="1600" height="900" fill="#0b0f14"/>
  <rect width="1600" height="900" fill="url(#g)"/>
  <!-- Bâtiment + roue dentée -->
  <g fill="#93c5fd" opacity="0.9">
    <rect x="460" y="420" width="220" height="260" rx="8"/>
    <rect x="720" y="460" width="180" height="220" rx="8"/>
    <rect x="940" y="500" width="160" height="180" rx="8"/>
    <g transform="translate(1050,410) scale(1.1)" fill="none" stroke="#93c5fd" stroke-width="10">
      <circle cx="0" cy="0" r="60"/>
      <line x1="0" y1="-80" x2="0" y2="-100"/>
      <line x1="0" y1="80" x2="0" y2="100"/>
      <line x1="80" y1="0" x2="100" y2="0"/>
      <line x1="-80" y1="0" x2="-100" y2="0"/>
      <line x1="56" y1="56" x2="70" y2="70"/>
      <line x1="-56" y1="56" x2="-70" y2="70"/>
      <line x1="56" y1="-56" x2="70" y2="-70"/>
      <line x1="-56" y1="-56" x2="-70" y2="-70"/>
    </g>
  </g>
</svg>
